PathFileType	4	(X/Y/Z)	Patient4_TMGait_0pt4_03_left_38.trc.trc
DataRate	CameraRate	NumFrames	NumMarkers	Units	OrigDataRate	OrigDataStartFrame	OrigNumFrames
74.468085106383	74.468085106383	5	33	mm	74.468085106383	36	       141
Frame#	Time	Sacral			L.Shoulder			Chest			R.Shoulder			Neck			R.ASIS			L.ASIS			R.Thigh.Superior			R.Thigh.Lateral			R.Thigh.Inferior			R.Patella			L.Thigh.Superior			L.Thigh.Lateral			L.Thigh.Inferior			L.Patella			L.Shank.Superior			L.Shank.Lateral			L.Shank.Inferior			R.Shank.Superior			R.Shank.Lateral			R.Shank.Inferior			R.Heel			R.Midfoot.Superior			R.Midfoot.Lateral			R.Toe			L.Heel			L.Midfoot.Lateral			L.Midfoot.Superior			L.Toe			L.Elbow			L.Wrist			R.Elbow			R.Wrist			
		X1	Y1	Z1	X2	Y2	Z2	X3	Y3	Z3	X4	Y4	Z4	X5	Y5	Z5	X6	Y6	Z6	X7	Y7	Z7	X8	Y8	Z8	X9	Y9	Z9	X10	Y10	Z10	X11	Y11	Z11	X12	Y12	Z12	X13	Y13	Z13	X14	Y14	Z14	X15	Y15	Z15	X16	Y16	Z16	X17	Y17	Z17	X18	Y18	Z18	X19	Y19	Z19	X20	Y20	Z20	X21	Y21	Z21	X22	Y22	Z22	X23	Y23	Z23	X24	Y24	Z24	X25	Y25	Z25	X26	Y26	Z26	X27	Y27	Z27	X28	Y28	Z28	X29	Y29	Z29	X30	Y30	Z30	X31	Y31	Z31	X32	Y32	Z32	X33	Y33	Z33	

36	50.840000000000	891.010970601740	1008.315685019028	488.373121513815	1024.265680268746	1430.934448731319	280.673682236761	1155.790927527151	1371.034623954977	423.034125800406	1100.725008303671	1445.474002731550	607.925113472462	1028.775717142919	1496.412875292487	439.179559632445	1130.776432529171	941.887027765085	577.132176046456	1085.381726180198	963.105049557712	305.819901509172	1131.392592730534	728.725281028010	555.904261667417	1036.098955374113	632.844288932913	627.784953243793	1096.418170303414	565.249856527844	547.796602743438	1080.018247209396	470.392631922912	562.994313742850	1153.066943106356	763.183968215250	330.446259183772	1073.313216758003	638.273863692181	274.685638865578	1172.219845487293	570.200037496952	327.680019300219	1180.285560083705	501.141666209426	334.371982320979	1159.699050639946	427.790175203093	327.354826626310	1076.222967472949	306.545289265410	280.707731932915	1144.335288481469	198.684555405863	344.275214104336	1023.251119479521	395.136560789915	574.337469449128	924.562543840284	322.014791979726	643.920924850912	935.409091937015	214.959242393515	586.316211468605	760.803251558353	81.349252518140	567.555492790705	938.196074867549	99.882272465343	594.216490515973	843.917142395841	54.269135112052	637.599144260373	1048.206470119447	37.477209694896	618.270312996988	1032.734536559696	38.503298555484	390.232100394021	1104.136883741875	36.074250911283	307.278462277369	1186.899328429195	98.290572560941	331.817785900711	1314.991685215160	48.752353950418	299.339238031703	937.309168684371	1080.321490083044	197.570190103630	959.357504922863	820.359577473493	203.582491976236	1223.961012482252	1124.464020134295	729.907896471465	1476.524728268112	1085.695387312883	698.540417019517	
37	50.853428571429	890.883223245763	1009.029969924744	484.597729698374	1025.503921238615	1431.628420236470	276.914089242421	1155.947832394365	1371.898693525292	420.271799048263	1099.544086171409	1446.702287245155	604.559123803054	1028.777554043546	1497.229156551543	435.494736739584	1130.124862828967	943.015096130773	574.395709359826	1086.125018788634	963.741650199961	303.115372177578	1134.427548014550	730.212594712134	553.541366336491	1041.170022296430	632.904991357927	625.506846250864	1103.449867731827	565.907303578431	545.886551750971	1088.109264359584	469.193495336491	562.484683551316	1152.299441599083	762.547579853721	326.985361143438	1070.495315288595	638.271766460198	272.635616745492	1168.817194764378	569.401737038365	325.342543021204	1176.215068041239	500.717991301207	332.784614579969	1155.610217758923	427.466543266392	325.916374332302	1071.815641925078	306.343445746124	279.495661114410	1139.437170254418	198.523830987339	343.710487629945	1028.867434635175	395.091975403622	573.523317458358	927.787728282914	325.147707540234	642.875475424309	936.297124447457	217.433191471503	586.256525047502	758.100030124583	89.055886963573	567.828327218250	935.986760997601	101.302608054828	594.504235084039	840.159346746477	58.780477969700	637.667547114810	1043.106956755929	37.031392883672	618.173781740967	1027.383417105064	38.499760113880	390.151795210762	1098.754312934610	35.972686550950	307.146285122027	1181.525290978339	98.194129901240	331.656571835126	1309.643892233630	48.647657314172	299.230010867925	944.650040491181	1079.568753051104	191.636296184619	974.282224667478	820.315280252565	196.353957378790	1218.582864271141	1124.306245538252	728.076009625765	1469.606628985547	1074.753234959145	698.046577223979	
38	50.866857142857	890.589132617286	1009.498894970858	480.860563631504	1026.807911799973	1432.157108246938	273.153780335317	1155.996772939793	1372.585951284030	417.636651577614	1098.081846579821	1447.721972766607	601.273326236621	1028.695128860636	1497.881570255429	431.812359954302	1129.280106988952	943.995894487321	571.797170903724	1086.801949118729	964.220528607682	300.536277553169	1137.964389157535	731.755721572288	551.287323023710	1047.006849960915	632.838153836405	623.314472878892	1111.383180600653	566.611199271879	544.065889366811	1097.147406294527	468.070856762458	561.961454061958	1151.398738993019	761.756169435702	323.866077963218	1067.851664264441	638.225846843242	270.612205072874	1165.471428764151	568.593445322925	323.266908110021	1172.202883568054	500.225028565772	331.310714591880	1151.559603190439	427.070684737902	324.563183080530	1067.470368667657	306.077318441507	278.328001703447	1134.526136132083	198.290596389837	343.206419034147	1035.426495135448	395.076426833680	572.688106046124	932.017560114175	328.521826798756	641.852868969652	937.865723155654	220.245690009303	586.175602167151	756.022337108191	97.828742724884	568.120647522494	934.186107813206	103.148713591578	594.861945246340	836.754839645480	64.146838578599	637.752392173594	1038.014649811923	36.474249168961	618.113733668264	1021.956478398388	38.480957121051	390.098842018319	1093.293680416488	35.857536924069	307.042883034269	1176.099004820813	98.039322193656	331.552806554035	1304.233986918197	48.443612822779	299.160991386015	952.268069224539	1078.826236817941	185.528919811036	989.752021450852	820.536486495091	189.025112644315	1212.787399550749	1123.988438477848	726.426603119708	1461.668438472813	1062.946531829435	697.715964854444	
39	50.880285714286	890.117171259831	1009.713121879860	477.190634721032	1028.147757512570	1432.488508517605	269.435354001314	1155.934502648792	1373.073072323820	415.149238451209	1096.372473207200	1448.514462980448	598.098218712432	1028.531336480530	1498.357768432475	428.160638128257	1128.251122612922	944.801051807722	569.351245557822	1087.389481517715	964.554500017972	298.084297527354	1141.938115852899	733.382874757498	549.139822244633	1053.536825328693	632.704923776958	621.211113253373	1120.105426339331	567.422556671671	542.331400902361	1107.032961155009	467.120570711522	561.387070447867	1150.400178132035	760.881005089728	321.154410883689	1065.495627353653	638.162899995365	268.597205091536	1162.275662171488	567.803449572374	321.463157493830	1168.336647755451	499.673971552420	329.955258097207	1147.630179622627	426.609353397136	323.300898004139	1063.277148854004	305.762855356235	277.180465255180	1129.658118601416	197.995930092314	342.756961278307	1042.869886465692	395.152366159013	571.808459957637	937.225546745244	332.172428181496	640.840073899604	940.115000945170	223.452937705629	586.052037489985	754.659239457969	107.704150446333	568.403406261472	932.816384313288	105.505811684357	595.258910754532	833.777227204035	70.443594930730	637.833170093156	1032.968594382485	35.789787038618	618.100882138604	1016.489794789396	38.453901321984	390.054034443912	1087.794314137246	35.739501653879	306.952070006275	1170.651702438816	97.848533944418	331.488742700092	1298.797418439704	48.172233060439	299.118390941698	960.182498584873	1078.076284188305	179.280300547984	1005.703284374982	821.018860837298	181.630881354022	1206.561901489821	1123.458003845156	724.938266064830	1452.623692584468	1050.369592471186	697.534274304866	
40	50.893714285714	889.460286973983	1009.685498863630	473.604381095569	1029.482931136141	1432.609665938182	265.807438530647	1155.756779202784	1373.357444172242	412.829598461408	1094.453513187433	1449.076705830875	595.067428569636	1028.288976594921	1498.661698267165	424.572559986227	1127.055195816846	945.420101979853	567.068710818395	1087.877107189632	964.766048143266	295.763260921991	1146.248973762815	735.132591093807	547.082139113677	1060.646763194755	632.587118108888	619.194666565998	1129.456225942674	568.418366309822	540.668670132693	1117.629868678014	466.445348278703	560.728703729013	1149.351860204124	759.988696955814	318.863713654182	1063.484897780789	638.095123241076	266.591458443080	1159.300682909019	567.048830925972	319.912957966032	1164.691614020136	499.076044118666	328.717270669656	1143.889539559773	426.089691158250	322.132082982081	1059.296067107460	305.417333404595	276.046920844751	1124.877874616297	197.651299633687	342.355805621730	1051.100420106764	395.394057045842	570.864961356261	943.339144150204	336.130906762240	639.814767229320	943.031049500905	227.100724330422	585.859646278886	754.094282716623	118.650036948487	568.629766162181	931.909259846409	108.444302002016	595.653213795473	831.311272701610	77.697932371190	637.874552210995	1028.036154145044	34.991050456088	618.134095750377	1011.013566722953	38.425083183766	390.003896693020	1082.288863282900	35.627288078265	306.862530996347	1165.209284578390	97.641354833927	331.449409066108	1293.363152848485	47.860669254073	299.090110271403	968.411892356145	1077.317356330451	172.934368591395	1022.073081209045	821.766614358845	174.208524031594	1199.888328886653	1122.675229513566	723.583393138552	1442.387713373216	1037.123460022502	697.490483726433	
